<svg version="1.1" id="Layer_1" xmlns="http://www.w3.org/2000/svg" xmlns:xlink="http://www.w3.org/1999/xlink" x="0px" y="0px"
	 width="100%" viewBox="0 0 512 400" enable-background="new 0 0 512 400" xml:space="preserve">
<path fill="#2D936C" opacity="1.000000" stroke="none" 
	d="
M140.000000,401.000000 
	C125.312439,401.000000 110.624878,401.000000 95.574127,400.604279 
	C94.869705,399.871399 94.568542,399.296478 94.181488,399.231293 
	C75.248695,396.041351 58.758030,387.811218 44.004044,375.623138 
	C22.711420,358.033539 8.208384,336.390106 2.912085,308.980835 
	C2.766157,308.225616 1.658952,307.656128 0.999997,307.000000 
	C1.000000,292.312439 1.000000,277.624878 1.395021,262.575012 
	C2.189924,261.378723 2.672276,260.573700 2.977038,259.706268 
	C6.341940,250.128754 8.688938,240.039291 13.239735,231.066345 
	C21.530657,214.718933 33.458534,201.075912 48.346165,190.140884 
	C67.208618,176.286285 88.390762,168.897507 111.668594,168.158218 
	C120.854820,167.866455 130.160110,168.855881 139.299225,170.090714 
	C155.551132,172.286530 170.125549,178.946243 183.690567,188.056885 
	C185.990356,189.601501 189.012726,190.822083 191.726196,190.873383 
	C206.214691,191.147278 220.712296,190.883530 235.204514,191.029617 
	C257.699768,191.256378 279.371460,171.180359 279.924255,146.921310 
	C280.311279,129.937546 280.029663,112.937698 279.947723,95.945511 
	C279.940277,94.400673 279.696777,92.394730 278.738037,91.389992 
	C271.192719,83.482460 263.446503,75.766609 254.901443,67.120903 
	C243.804382,78.271568 233.161392,88.965965 222.531860,99.646843 
	C218.158020,95.722961 213.740005,91.467964 209.003540,87.603226 
	C205.273117,84.559387 205.862762,82.477966 209.077652,79.294678 
	C233.818741,54.796803 258.392456,30.129736 282.967712,5.464966 
	C284.215424,4.212709 284.999878,2.498905 286.000000,1.000003 
	C287.388885,1.000000 288.777802,1.000000 290.349426,1.301317 
	C295.412140,6.736692 300.292114,11.870749 305.985931,17.861059 
	C294.869415,28.930006 284.069153,39.684036 273.019958,50.685947 
	C279.646606,57.262745 286.748352,63.618675 292.945129,70.759918 
	C295.940521,74.211838 298.801697,75.088814 303.013062,75.077553 
	C349.137054,74.954170 395.261505,74.973351 441.385742,75.044868 
	C445.655609,75.051491 450.037048,75.182060 454.174530,76.110954 
	C472.893066,80.313416 489.893951,98.656288 489.954773,118.770462 
	C490.095215,165.227386 489.973999,211.685074 490.082703,258.142181 
	C490.087616,260.242706 490.698608,262.915680 492.055756,264.346710 
	C501.350037,274.147186 507.276215,285.710815 511.029999,298.547241 
	C511.301971,299.477325 512.325745,300.187561 513.000000,301.000000 
	C513.000000,313.020905 513.000000,325.041779 512.615784,337.412354 
	C511.817871,338.589752 511.228333,339.375000 511.016693,340.251526 
	C507.488037,354.863098 499.988220,367.429138 489.465973,377.771027 
	C479.006683,388.050964 466.756012,395.996887 451.955994,399.075317 
	C451.203125,399.231934 450.647461,400.336700 450.000000,401.000000 
	C437.979095,401.000000 425.958221,401.000000 413.591492,400.619446 
	C412.908722,399.891388 412.623291,399.319702 412.227417,399.228668 
	C396.134583,395.530304 382.914032,387.241699 371.582458,375.237457 
	C357.691956,360.522339 350.390381,343.362946 350.014252,323.202881 
	C349.922363,318.277527 350.000580,313.348969 350.000580,308.218018 
	C310.370911,308.218018 271.467926,308.218018 232.563843,308.218018 
	C232.035370,309.587219 231.412842,310.763916 231.122223,312.017517 
	C225.184662,337.630676 211.661728,358.377655 191.487396,375.133759 
	C176.903732,387.246460 160.563187,395.344879 142.003860,399.087830 
	C141.238495,399.242188 140.663605,400.341125 140.000000,401.000000 
M433.446838,121.999596 
	C398.055359,121.999596 362.663910,121.999596 326.999237,121.999596 
	C326.999237,132.199112 327.043549,141.518356 326.987823,150.837021 
	C326.920837,162.039932 324.027374,172.648911 319.566956,182.798767 
	C313.289764,197.082672 303.784454,209.009888 291.667358,218.769760 
	C279.831909,228.302734 266.470490,234.752945 251.335327,236.956711 
	C243.056686,238.162125 234.695511,238.800781 226.129120,239.721054 
	C227.727493,245.076096 229.877960,250.441879 230.809082,256.011505 
	C231.492264,260.098145 233.050873,261.079956 236.896423,261.070526 
	C281.374451,260.961609 325.852966,261.043030 370.330688,260.882080 
	C372.652496,260.873688 375.198273,259.486725 377.241791,258.138397 
	C382.585236,254.612778 387.403564,250.197006 392.981720,247.140854 
	C404.724335,240.707367 417.442596,237.575455 430.939270,237.982056 
	C434.852661,238.099945 438.772644,238.000153 442.656738,238.000153 
	C442.656738,198.935074 442.656738,160.704086 442.656738,122.595848 
	C442.017548,122.348320 441.720764,122.139702 441.418335,122.131165 
	C439.089142,122.065460 436.758850,122.038544 433.446838,121.999596 
M52.097065,259.858948 
	C45.871696,280.192993 46.025532,299.974670 56.955532,318.926270 
	C73.698364,347.956757 105.190750,360.359283 136.594894,351.436371 
	C166.789688,342.857056 185.840454,317.606293 186.870972,286.116272 
	C187.221680,275.399597 185.040817,264.927002 180.147110,255.091660 
	C172.771835,240.268906 161.840607,229.174667 146.978653,221.925140 
	C134.979813,216.072220 122.360710,214.663544 109.151466,215.921799 
	C92.841385,217.475418 78.997147,224.386002 68.015335,235.948257 
	C61.688805,242.609177 57.539585,251.338089 52.097065,259.858948 
M451.907562,347.538239 
	C453.564392,345.899750 455.249329,344.288605 456.873352,342.618256 
	C466.195190,333.030212 468.075592,321.475922 464.490875,309.196930 
	C459.782898,293.070251 441.686676,282.312653 425.005005,285.811493 
	C401.734924,290.692230 389.191284,317.151428 402.164642,337.552826 
	C413.322266,355.098938 433.967377,359.200653 451.907562,347.538239 
z"/>
<path fill="#000000" opacity="1.000000" stroke="none" 
	d="
M285.531342,1.000003 
	C284.999878,2.498905 284.215424,4.212709 282.967712,5.464966 
	C258.392456,30.129736 233.818741,54.796803 209.077652,79.294678 
	C205.862762,82.477966 205.273117,84.559387 209.003540,87.603226 
	C213.740005,91.467964 218.158020,95.722961 222.531860,99.646843 
	C233.161392,88.965965 243.804382,78.271568 254.901443,67.120903 
	C263.446503,75.766609 271.192719,83.482460 278.738037,91.389992 
	C279.696777,92.394730 279.940277,94.400673 279.947723,95.945511 
	C280.029663,112.937698 280.311279,129.937546 279.924255,146.921310 
	C279.371460,171.180359 257.699768,191.256378 235.204514,191.029617 
	C220.712296,190.883530 206.214691,191.147278 191.726196,190.873383 
	C189.012726,190.822083 185.990356,189.601501 183.690567,188.056885 
	C170.125549,178.946243 155.551132,172.286530 139.299225,170.090714 
	C130.160110,168.855881 120.854820,167.866455 111.668594,168.158218 
	C88.390762,168.897507 67.208618,176.286285 48.346165,190.140884 
	C33.458534,201.075912 21.530657,214.718933 13.239735,231.066345 
	C8.688938,240.039291 6.341940,250.128754 2.977038,259.706268 
	C2.672276,260.573700 2.189924,261.378723 1.395021,262.106384 
	C1.000000,175.069763 1.000000,88.139511 1.000000,1.000000 
	C95.687462,1.000000 190.375076,1.000000 285.531342,1.000003 
M75.602707,145.999619 
	C110.755486,145.999588 145.908264,145.999893 181.061050,145.998154 
	C182.393692,145.998077 183.933121,146.391968 185.003967,145.857071 
	C186.204895,145.257233 187.971985,143.585571 187.786850,142.765244 
	C186.314590,136.241898 185.689499,129.084961 182.448792,123.485878 
	C172.639313,106.537735 157.665771,97.711266 137.605057,97.945442 
	C116.116447,98.196281 94.622032,97.919960 73.131744,98.083672 
	C69.589027,98.110657 66.002953,99.005035 62.525112,99.858139 
	C47.324715,103.586723 42.459167,124.920090 51.622963,136.217041 
	C57.659443,143.658707 65.498924,146.191589 75.602707,145.999619 
z"/>
<path fill="#000000" opacity="1.000000" stroke="none" 
	d="
M513.000000,300.531342 
	C512.325745,300.187561 511.301971,299.477325 511.029999,298.547241 
	C507.276215,285.710815 501.350037,274.147186 492.055756,264.346710 
	C490.698608,262.915680 490.087616,260.242706 490.082703,258.142181 
	C489.973999,211.685074 490.095215,165.227386 489.954773,118.770462 
	C489.893951,98.656288 472.893066,80.313416 454.174530,76.110954 
	C450.037048,75.182060 445.655609,75.051491 441.385742,75.044868 
	C395.261505,74.973351 349.137054,74.954170 303.013062,75.077553 
	C298.801697,75.088814 295.940521,74.211838 292.945129,70.759918 
	C286.748352,63.618675 279.646606,57.262745 273.019958,50.685947 
	C284.069153,39.684036 294.869415,28.930006 305.985931,17.861059 
	C300.292114,11.870749 295.412140,6.736692 290.766113,1.301317 
	C364.937958,1.000000 438.875885,1.000000 513.000000,1.000000 
	C513.000000,100.687485 513.000000,200.375076 513.000000,300.531342 
z"/>
<path fill="#000000" opacity="1.000000" stroke="none" 
	d="
M140.468658,401.000000 
	C140.663605,400.341125 141.238495,399.242188 142.003860,399.087830 
	C160.563187,395.344879 176.903732,387.246460 191.487396,375.133759 
	C211.661728,358.377655 225.184662,337.630676 231.122223,312.017517 
	C231.412842,310.763916 232.035370,309.587219 232.563843,308.218018 
	C271.467926,308.218018 310.370911,308.218018 350.000580,308.218018 
	C350.000580,313.348969 349.922363,318.277527 350.014252,323.202881 
	C350.390381,343.362946 357.691956,360.522339 371.582458,375.237457 
	C382.914032,387.241699 396.134583,395.530304 412.227417,399.228668 
	C412.623291,399.319702 412.908722,399.891388 413.122833,400.619446 
	C322.312439,401.000000 231.624878,401.000000 140.468658,401.000000 
z"/>
<path fill="#000000" opacity="1.000000" stroke="none" 
	d="
M0.999997,307.468658 
	C1.658952,307.656128 2.766157,308.225616 2.912085,308.980835 
	C8.208384,336.390106 22.711420,358.033539 44.004044,375.623138 
	C58.758030,387.811218 75.248695,396.041351 94.181488,399.231293 
	C94.568542,399.296478 94.869705,399.871399 95.105469,400.604279 
	C63.739746,401.000000 32.479488,401.000000 1.000000,401.000000 
	C1.000000,369.979462 1.000000,338.958374 0.999997,307.468658 
z"/>
<path fill="#000000" opacity="1.000000" stroke="none" 
	d="
M450.468658,401.000000 
	C450.647461,400.336700 451.203125,399.231934 451.955994,399.075317 
	C466.756012,395.996887 479.006683,388.050964 489.465973,377.771027 
	C499.988220,367.429138 507.488037,354.863098 511.016693,340.251526 
	C511.228333,339.375000 511.817871,338.589752 512.615784,337.880981 
	C513.000000,358.926819 513.000000,379.853638 513.000000,401.000000 
	C492.312958,401.000000 471.625122,401.000000 450.468658,401.000000 
z"/>
<path fill="#000000" opacity="1.000000" stroke="none" 
	d="
M433.937866,121.999596 
	C436.758850,122.038544 439.089142,122.065460 441.418335,122.131165 
	C441.720764,122.139702 442.017548,122.348320 442.656738,122.595848 
	C442.656738,160.704086 442.656738,198.935074 442.656738,238.000153 
	C438.772644,238.000153 434.852661,238.099945 430.939270,237.982056 
	C417.442596,237.575455 404.724335,240.707367 392.981720,247.140854 
	C387.403564,250.197006 382.585236,254.612778 377.241791,258.138397 
	C375.198273,259.486725 372.652496,260.873688 370.330688,260.882080 
	C325.852966,261.043030 281.374451,260.961609 236.896423,261.070526 
	C233.050873,261.079956 231.492264,260.098145 230.809082,256.011505 
	C229.877960,250.441879 227.727493,245.076096 226.129120,239.721054 
	C234.695511,238.800781 243.056686,238.162125 251.335327,236.956711 
	C266.470490,234.752945 279.831909,228.302734 291.667358,218.769760 
	C303.784454,209.009888 313.289764,197.082672 319.566956,182.798767 
	C324.027374,172.648911 326.920837,162.039932 326.987823,150.837021 
	C327.043549,141.518356 326.999237,132.199112 326.999237,121.999596 
	C362.663910,121.999596 398.055359,121.999596 433.937866,121.999596 
z"/>
<path fill="#000000" opacity="1.000000" stroke="none" 
	d="
M52.253693,259.497559 
	C57.539585,251.338089 61.688805,242.609177 68.015335,235.948257 
	C78.997147,224.386002 92.841385,217.475418 109.151466,215.921799 
	C122.360710,214.663544 134.979813,216.072220 146.978653,221.925140 
	C161.840607,229.174667 172.771835,240.268906 180.147110,255.091660 
	C185.040817,264.927002 187.221680,275.399597 186.870972,286.116272 
	C185.840454,317.606293 166.789688,342.857056 136.594894,351.436371 
	C105.190750,360.359283 73.698364,347.956757 56.955532,318.926270 
	C46.025532,299.974670 45.871696,280.192993 52.253693,259.497559 
M120.812370,249.874664 
	C118.096199,249.894363 115.367935,249.754425 112.665771,249.959045 
	C91.231186,251.582245 77.711838,273.999786 83.027359,293.685608 
	C88.138443,312.614319 105.921906,322.569794 123.027718,319.708588 
	C144.268295,316.155823 156.282379,297.493561 151.903336,276.341461 
	C149.047241,262.545593 134.602722,249.825867 120.812370,249.874664 
z"/>
<path fill="#000000" opacity="1.000000" stroke="none" 
	d="
M451.596741,347.728027 
	C433.967377,359.200653 413.322266,355.098938 402.164642,337.552826 
	C389.191284,317.151428 401.734924,290.692230 425.005005,285.811493 
	C441.686676,282.312653 459.782898,293.070251 464.490875,309.196930 
	C468.075592,321.475922 466.195190,333.030212 456.873352,342.618256 
	C455.249329,344.288605 453.564392,345.899750 451.596741,347.728027 
z"/>
<path fill="#2D936C" opacity="1.000000" stroke="none" 
	d="
M75.119484,145.999603 
	C65.498924,146.191589 57.659443,143.658707 51.622963,136.217041 
	C42.459167,124.920090 47.324715,103.586723 62.525112,99.858139 
	C66.002953,99.005035 69.589027,98.110657 73.131744,98.083672 
	C94.622032,97.919960 116.116447,98.196281 137.605057,97.945442 
	C157.665771,97.711266 172.639313,106.537735 182.448792,123.485878 
	C185.689499,129.084961 186.314590,136.241898 187.786850,142.765244 
	C187.971985,143.585571 186.204895,145.257233 185.003967,145.857071 
	C183.933121,146.391968 182.393692,145.998077 181.061050,145.998154 
	C145.908264,145.999893 110.755486,145.999588 75.119484,145.999603 
z"/>
<path fill="#2D936C" opacity="1.000000" stroke="none" 
	d="
M121.246841,249.921417 
	C134.602722,249.825867 149.047241,262.545593 151.903336,276.341461 
	C156.282379,297.493561 144.268295,316.155823 123.027718,319.708588 
	C105.921906,322.569794 88.138443,312.614319 83.027359,293.685608 
	C77.711838,273.999786 91.231186,251.582245 112.665771,249.959045 
	C115.367935,249.754425 118.096199,249.894363 121.246841,249.921417 
z"/>
</svg>